# xmcd
#
# Track frame offsets:
#	183
#	16833
#	45083
#	65258
#	90033
#	115458
#
# Disc length: 1768 seconds
# Revision: 0
# Processed by: cddbd v1.5.2PL0 Copyright (c) Steve Scherf et al.
# Submitted via: dBpowerAMP V12.0
#
DISCID=3506e606
DTITLE=Key West feat. Erik - Looks Like I'm In Love Again
DYEAR=1996
DGENRE=House
TTITLE0=Looks Like I'm In Love Again [7 Inch Version]
TTITLE1=Looks Like I'm In Love Again [Finger Poppin' Good 12 Inch]
TTITLE2=Looks Like I'm In Love Again [Wall Of Bass Mix]
TTITLE3=Looks Like I'm In Love Again [I'm In Trance Again Mix]
TTITLE4=Looks Like I'm In Love Again [Italio Dub Again]
TTITLE5=Looks Like I'm In Love Again [Original Version]
EXTD=
EXTT0=
EXTT1=
EXTT2=
EXTT3=
EXTT4=
EXTT5=
PLAYORDER=
